<svg width="164" height="145" viewBox="0 0 164 145" fill="none" xmlns="http://www.w3.org/2000/svg">
<g id="405">
<path id="Vector" d="M113.232 46.1025H100.955L102.537 18.5112H111.652L113.232 46.1025Z" fill="#D1D3D4"/>
<g id="Group">
<path id="Vector_2" d="M12.8474 114.319L0.928548 107.112C0.352313 106.763 0 106.138 0 105.465V82.6075C0 81.9347 0.352313 81.3095 0.928548 80.9612L12.8474 73.7538V114.319Z" fill="#D1D3D4"/>
<path id="Vector_3" d="M151.149 73.7531L163.068 80.9605C163.644 81.3088 164 81.934 164 82.6068V105.465C164 106.137 163.647 106.763 163.068 107.111L151.149 114.318V73.7531Z" fill="#D1D3D4"/>
</g>
<path id="Vector_4" d="M150.869 145H13.1283C11.7221 145 10.5815 143.863 10.5815 142.461V45.6112C10.5815 44.209 11.7221 43.0718 13.1283 43.0718H150.872C152.279 43.0718 153.419 44.209 153.419 45.6112V142.461C153.416 143.863 152.279 145 150.869 145Z" fill="white"/>
<path id="Vector_5" d="M146.697 138.603H17.3033C16.411 138.603 15.687 137.875 15.687 136.978V51.3797C15.687 50.4826 16.411 49.7549 17.3033 49.7549H146.697C147.589 49.7549 148.313 50.4826 148.313 51.3797V136.978C148.31 137.875 147.589 138.603 146.697 138.603Z" fill="#2E3038"/>
<g id="Group_2">
<g id="Group_3">
<path id="Vector_6" d="M65.8148 77.8798L62.4697 74.5464L47.4422 89.5216L50.7873 92.8551L65.8148 77.8798Z" fill="white"/>
<path id="Vector_7" d="M62.4733 92.8618L65.8174 89.5273L50.7943 74.5477L47.4502 77.8821L62.4733 92.8618Z" fill="white"/>
</g>
<g id="Group_4">
<path id="Vector_8" d="M116.547 77.8793L113.202 74.5459L98.1746 89.5211L101.52 92.8546L116.547 77.8793Z" fill="white"/>
<path id="Vector_9" d="M113.208 92.8608L116.552 89.5264L101.529 74.5467L98.1851 77.8811L113.208 92.8608Z" fill="white"/>
</g>
</g>
<g id="Group_5">
<path id="Vector_10" d="M103.776 108.263H62.1201V111.288H103.776V108.263Z" fill="white"/>
<path id="Vector_11" d="M92.7322 122.71C88.9045 122.71 85.7935 119.605 85.7935 115.792V108.263H99.6739V115.792C99.6709 119.605 96.5598 122.71 92.7322 122.71ZM88.8239 111.284V115.792C88.8239 117.941 90.5765 119.689 92.7322 119.689C94.8878 119.689 96.6404 117.941 96.6404 115.792V111.284H88.8239Z" fill="white"/>
</g>
<path id="Vector_12" d="M107.093 22.7506C113.393 22.7506 118.501 17.6577 118.501 11.3753C118.501 5.09289 113.393 0 107.093 0C100.792 0 95.6846 5.09289 95.6846 11.3753C95.6846 17.6577 100.792 22.7506 107.093 22.7506Z" fill="white"/>
</g>
</svg>
