<svg width="130" height="55" viewBox="0 0 130 55" fill="none" xmlns="http://www.w3.org/2000/svg">
<g id="Arrows">
<g id="Group 11">
<path id="Oval" d="M27.5 54.5C12.5883 54.5 0.499998 42.4117 0.499999 27.5C0.499999 12.5883 12.5883 0.499998 27.5 0.499999C42.4117 0.499999 54.5 12.5883 54.5 27.5C54.5 42.4117 42.4117 54.5 27.5 54.5Z" stroke="#9A9A9A"/>
<g id="Group 10">
<path id="Path 7" d="M25 19L17.2336 27.6277L25 35.4381" stroke="black" stroke-width="0.7"/>
<path id="Line 2" d="M36.65 27.6276L17.5 27.4999" stroke="black" stroke-width="0.7" stroke-linecap="square"/>
</g>
</g>
<g id="Group 12">
<path id="Oval_2" d="M102.5 54.5C87.5883 54.5 75.5 42.4117 75.5 27.5C75.5 12.5883 87.5883 0.499998 102.5 0.499999C117.412 0.499999 129.5 12.5883 129.5 27.5C129.5 42.4117 117.412 54.5 102.5 54.5Z" stroke="#9A9A9A"/>
<g id="Group 10_2">
<path id="Path 7_2" d="M105 19L112.766 27.6277L105 35.4381" stroke="black" stroke-width="0.7"/>
<path id="Line 2_2" d="M93.35 27.6276L112.5 27.4999" stroke="black" stroke-width="0.7" stroke-linecap="square"/>
</g>
</g>
</g>
</svg>
