<svg width="23" height="8" viewBox="0 0 23 8" fill="none" xmlns="http://www.w3.org/2000/svg">
<g id="Navi">
<g id="Group 3">
<path id="menu" fill-rule="evenodd" clip-rule="evenodd" d="M0.929074 0H22.0709C22.5841 0 23 0.462474 23 1.03293C23 1.60338 22.5841 2.06585 22.0709 2.06585H0.929074C0.415977 2.06585 0 1.60338 0 1.03293C0 0.462474 0.415977 0 0.929074 0ZM0.929074 5.93378H22.0709C22.5841 5.93378 23 6.39625 23 6.9667C23 7.5372 22.5841 7.99963 22.0709 7.99963H0.929074C0.415977 7.99963 0 7.5372 0 6.9667C0 6.3962 0.415977 5.93378 0.929074 5.93378Z" fill="#313131"/>
<mask id="mask0_1458_1369" style="mask-type:luminance" maskUnits="userSpaceOnUse" x="0" y="0" width="23" height="8">
<path id="menu_2" fill-rule="evenodd" clip-rule="evenodd" d="M0.929074 0H22.0709C22.5841 0 23 0.462474 23 1.03293C23 1.60338 22.5841 2.06585 22.0709 2.06585H0.929074C0.415977 2.06585 0 1.60338 0 1.03293C0 0.462474 0.415977 0 0.929074 0ZM0.929074 5.93378H22.0709C22.5841 5.93378 23 6.39625 23 6.9667C23 7.5372 22.5841 7.99963 22.0709 7.99963H0.929074C0.415977 7.99963 0 7.5372 0 6.9667C0 6.3962 0.415977 5.93378 0.929074 5.93378Z" fill="white"/>
</mask>
<g mask="url(#mask0_1458_1369)">
</g>
</g>
</g>
</svg>
