<svg width="16" height="16" viewBox="0 0 16 16" fill="none" xmlns="http://www.w3.org/2000/svg">
<path id="menu" fill-rule="evenodd" clip-rule="evenodd" d="M9.52524 7.99999L15.7662 14.1548C16.1089 14.4928 16.0703 15.0788 15.6801 15.4636C15.2898 15.8485 14.6957 15.8866 14.353 15.5486L8.11197 9.39375L9.52524 7.99999ZM8.11197 6.60624L14.353 0.451385C14.6957 0.113423 15.2898 0.1515 15.6801 0.536364C16.0703 0.921262 16.1089 1.50718 15.7662 1.84515L9.52524 7.99999L8.11197 6.60624ZM8.11197 6.60624L6.69871 7.99999L0.233759 1.62428C-0.108904 1.28635 -0.0703242 0.700363 0.319926 0.315499C0.710177 -0.0693651 1.30436 -0.107413 1.64702 0.230521L8.11197 6.60624ZM6.69871 7.99999L8.11197 9.39375L1.64702 15.7695C1.30436 16.1074 0.710211 16.0694 0.319926 15.6845C-0.0703584 15.2996 -0.108904 14.7136 0.233759 14.3757L6.69871 7.99999Z" fill="white"/>
</svg>
