<svg width="111" height="42" viewBox="0 0 111 42" fill="none" xmlns="http://www.w3.org/2000/svg">
<g id="Group">
<path id="Path" d="M61.1249 27.5111L61.0969 27.5732C60.2356 29.4924 56.1674 38.5362 55.5722 39.9653C54.949 38.5224 50.5797 28.7468 50.0475 27.5663L50.0195 27.5042H48.6611L54.83 41.2563H56.2514L62.4133 27.518H61.1249V27.5111Z" fill="#24DAC4"/>
<path id="Shape" fill-rule="evenodd" clip-rule="evenodd" d="M63.4712 33.9144C63.4712 29.4393 66.0291 26.4365 69.8319 26.4365C73.6212 26.4365 76.1655 29.4029 76.1655 33.8269C76.1655 38.2656 73.6212 41.2465 69.8319 41.2465C66.0291 41.2465 63.4712 38.302 63.4712 33.9144ZM64.6754 33.8557C64.6754 37.5801 66.7435 40.08 69.832 40.08C72.9001 40.08 74.9614 37.5801 74.9682 33.8557C74.9682 30.1314 72.9069 27.6242 69.832 27.6242C66.7775 27.6242 64.7094 30.0877 64.6754 33.761V33.8557Z" fill="#24DAC4"/>
<path id="Shape_2" fill-rule="evenodd" clip-rule="evenodd" d="M104.832 26.7134C106.707 26.7134 108.272 27.4127 109.365 28.724C110.436 30.0061 111.007 31.8273 111 33.9909L110.986 34.4498H99.5462C99.5885 36.22 100.103 37.7061 101.04 38.7479C101.985 39.8041 103.303 40.3578 104.861 40.3578C107.814 40.3578 109.4 38.5147 109.661 36.6935L109.675 36.5988H110.922L110.908 36.7227C110.528 39.5929 108.089 41.5234 104.832 41.5234C102.873 41.5234 101.224 40.8313 100.061 39.52C98.9118 38.2233 98.3057 36.3876 98.3057 34.2167C98.3057 32.024 98.933 30.1445 100.124 28.7823C101.308 27.4273 102.936 26.7134 104.832 26.7134ZM104.854 27.9082C101.907 27.9082 99.8492 30.05 99.5884 33.3718H109.745C109.576 29.948 107.757 27.9082 104.868 27.9082H104.854Z" fill="#24DAC4"/>
<path id="Path_2" d="M82.2673 39.9841C82.0288 40.0815 81.7836 40.1302 81.5252 40.1162H81.5186C80.8296 40.1162 80.5116 39.6919 80.5116 38.7805V21.158H79.3389V38.9126C79.3389 40.4015 80.061 41.2572 81.3265 41.2572C81.3331 41.2572 81.3464 41.2572 81.353 41.2572C81.7174 41.2572 82.0818 41.2016 82.4329 41.0833L82.5124 41.0555L82.3799 39.9284L82.2673 39.9841Z" fill="#24DAC4"/>
<path id="Path_3" d="M96.0415 27.518L96.0135 27.5801C95.1523 29.4993 91.0981 38.5224 90.4959 39.9653C89.8727 38.5155 85.5034 28.7537 84.9712 27.5663L84.9432 27.5042H83.5708L89.7116 41.1941L89.7396 41.2563H91.1611L97.3229 27.518H96.0415Z" fill="#24DAC4"/>
<path id="Logo" fill-rule="evenodd" clip-rule="evenodd" d="M49.9569 0.020874C50.6057 -0.00695799 51.2264 0.313109 51.572 0.86279C51.9105 1.41943 51.9246 2.15698 51.6002 2.87365L35.499 39.0413C35.3579 39.3613 35.1957 39.6675 35.0053 39.9597C34.434 40.8016 33.4608 41.2957 32.4311 41.2539H25.9144H19.3978C18.3681 41.2957 17.3948 40.8016 16.8236 39.9597C16.6402 39.6675 16.4709 39.3613 16.3299 39.0413L0.228678 2.87365C-0.0886913 2.15698 -0.0745861 1.42639 0.263941 0.86279C0.609521 0.320067 1.2231 -0.00695799 1.879 0.020874L15.4553 0C16.7037 0 18.1071 0.96716 18.6502 2.19872L25.7804 18.2091C25.8016 18.2647 25.858 18.2995 25.9144 18.2995C25.9708 18.2995 26.0273 18.2647 26.0484 18.2091L33.1786 2.19872C33.7217 0.96716 35.1252 0 36.3735 0L49.9569 0.020874ZM1.56158 2.22039L17.1479 37.2121C17.1903 37.2956 17.2749 37.3443 17.3666 37.3374C17.4583 37.3374 17.5429 37.2817 17.5781 37.1982L25.0399 20.4364C25.0681 20.3738 25.0681 20.2972 25.0399 20.2346L17.296 2.84661C16.9928 2.15777 16.1253 1.55242 15.4482 1.55242L1.90716 1.57329C1.76611 1.55938 1.62506 1.622 1.54043 1.73333C1.46285 1.89336 1.4699 2.07427 1.56158 2.22039ZM32.7202 39.6878H31.761H25.9073H20.0536H19.0945C18.7348 39.6809 18.4456 39.4026 18.4386 39.0477C18.4456 38.9781 18.4597 38.9085 18.4879 38.8459L18.904 37.9135L25.7804 22.4738C25.8015 22.4181 25.858 22.3833 25.9144 22.3833C25.9708 22.3833 26.0272 22.4181 26.0484 22.4738L32.9177 37.9205L33.3338 38.8529C33.362 38.9155 33.3761 38.9851 33.3831 39.0547C33.362 39.4026 33.0799 39.6809 32.7202 39.6878ZM34.6738 37.2119L50.2531 2.2202C50.3447 2.07409 50.3588 1.89318 50.2813 1.7401C50.1966 1.62878 50.0556 1.56615 49.9145 1.58007L36.3664 1.5592C35.6893 1.5592 34.8219 2.16454 34.5186 2.85338L26.7818 20.2484C26.7536 20.311 26.7536 20.3875 26.7818 20.4501L34.2365 37.2119C34.2788 37.2954 34.3564 37.3511 34.4551 37.3511C34.5539 37.3511 34.6385 37.2954 34.6738 37.2119Z" fill="#24DAC4"/>
</g>
</svg>
